#N canvas 8 107 200 200 10;
#N canvas 18 79 420 300 META 0;
#X text 10 30 NAME sigpack;
#X text 10 50 AUTHOR postmeister@weiss-archiv.de;
#X text 10 69 MAINTAINER fjkraan@electrickery.nl;
#X text 10 88 LICENSE GNU GPL 2;
#X text 10 108 VERSION 0.45.1;
#X text 10 127 REPOSITORY https://github.com/electrickery/pd-sigpack;
#X restore 10 10 pd META;
