#N canvas 494 83 557 534 10;
#X obj 0 0 cnv 15 552 40 empty empty foldover 3 12 0 18 -204280 -1
0;
#X obj 0 353 cnv 3 550 3 empty empty inlets 8 12 0 13 -228856 -1 0
;
#X obj 0 444 cnv 3 550 3 empty empty outlets 8 12 0 13 -228856 -1 0
;
#X obj 0 481 cnv 3 550 3 empty empty arguments 8 12 0 13 -228856 -1
0;
#X obj 79 453 cnv 17 3 17 empty empty 0 5 9 0 16 -228856 -162280 0
;
#X obj 79 367 cnv 17 3 17 empty empty 0 5 9 0 16 -228856 -162280 0
;
#X obj 0 515 cnv 15 552 21 empty empty empty 20 12 0 14 -233017 -33289
0;
#N canvas 238 349 428 75 Related_objects 0;
#X obj 0 0 cnv 15 425 20 empty empty empty 3 12 0 14 -204280 -1 0;
#X text 6 1 Related Objects;
#X restore 206 517 pd Related_objects;
#N canvas 583 626 379 261 META 0;
#X text 12 25 LICENSE GPL v2;
#X text 12 198 MAINTAINER Fred Jan Kraan <fjkraan@xs4all.nl>;
#X text 12 83 INLET_0 signal;
#X text 12 143 OUTLET_0 signal;
#X text 12 123 INLET_2 float;
#X text 12 64 VERSION 0.03;
#X text 12 5 KEYWORDS signal mirror;
#X text 11 44 DESCRIPTION signal mirroring;
#X text 12 103 INLET_1 float;
#X text 12 219 HELP_PATCH_AUTHORS Martin Weiss 2003 Updated by Fred
Jan Kraan 2016-04.;
#X text 12 163 AUTHOR Martin Weiss code from swh_plugins by steve harris
www.plugin.org.uk;
#X restore 502 519 pd META;
#X obj 123 290 output~;
#X obj 270 47 vsl 10 64 0 1 0 1 empty empty empty 0 -9 0 10 -262144
-1 -1 0 1;
#X obj 334 275 metro 100;
#X obj 334 254 tgl 15 0 empty empty empty 17 7 0 10 -262144 -1 -1 1
1;
#X floatatom 270 121 5 0 0 0 - - -, f 5;
#X text 107 367 signal;
#X obj 79 392 cnv 17 3 17 empty empty 1 5 9 0 16 -228856 -162280 0
;
#X obj 79 417 cnv 17 3 17 empty empty 2 5 9 0 16 -228856 -162280 0
;
#X text 107 417 float;
#X obj 122 105 osc~ 440;
#X text 107 453 signal;
#N canvas 597 584 450 300 view 0;
#N canvas 0 50 450 250 (subpatch) 0;
#X array \$0-foldover 100 float 0;
#X coords 0 -1 99 1 200 140 1 0 0;
#X restore 128 78 graph;
#X text 112 77 10;
#X text 106 205 -10;
#N canvas 0 50 450 250 (subpatch) 0;
#X array \$0-osc 100 float 0;
#X coords 0 1 100 -1 200 20 1 0 0;
#X restore 128 222 graph;
#X obj 0 0 cnv 15 425 20 empty empty empty 3 12 0 14 -204280 -1 0;
#X text 6 1 waveform viewer;
#X text 14 266 array updates can cause dropouts when visible;
#X restore 415 253 pd view waveform;
#X text 8 23 mirrors signal at specified borders, f 75;
#X obj 476 6 foldback~;
#X obj 196 47 vsl 10 64 0 1 0 1 empty empty empty 0 -9 0 10 -262144
-1 -1 0 1;
#X floatatom 196 121 5 0 0 0 - - -, f 5;
#X obj 334 296 tabwrite~ \$0-osc;
#X text 107 392 float;
#X text 162 367 - signal to process;
#X text 164 453 - processed signal;
#X text 96 490 1: default lower mirror level \, 2: default upper mirror
level;
#X obj 123 203 sigpack/foldover~ 0.5 0.5;
#X msg 351 45 0;
#X msg 351 85 1;
#X obj 390 45 bng 15 250 50 0 empty empty empty 17 7 0 10 -262144 -1
-1;
#X text 413 44 unprocessed;
#X obj 390 70 bng 15 250 50 0 empty empty empty 17 7 0 10 -262144 -1
-1;
#X msg 351 66 0;
#X text 413 69 frequency doubled;
#X text 162 392 - amplification or drive;
#X text 162 417 - symetry ur push;
#X obj 334 317 tabwrite~ \$0-foldover;
#X connect 10 0 13 0;
#X connect 11 0 25 0;
#X connect 11 0 40 0;
#X connect 12 0 11 0;
#X connect 13 0 30 2;
#X connect 18 0 25 0;
#X connect 18 0 30 0;
#X connect 23 0 24 0;
#X connect 24 0 30 1;
#X connect 30 0 9 0;
#X connect 30 0 9 1;
#X connect 30 0 40 0;
#X connect 31 0 10 0;
#X connect 31 0 23 0;
#X connect 32 0 23 0;
#X connect 33 0 31 0;
#X connect 35 0 32 0;
#X connect 35 0 36 0;
#X connect 36 0 10 0;
