#N canvas 494 83 557 534 10;
#X obj 0 0 cnv 15 552 40 empty empty freqdiv~ 3 12 0 18 -204280 -1
0;
#X obj 0 353 cnv 3 550 3 empty empty inlets 8 12 0 13 -228856 -1 0
;
#X obj 0 425 cnv 3 550 3 empty empty outlets 8 12 0 13 -228856 -1 0
;
#X obj 0 462 cnv 3 550 3 empty empty arguments 8 12 0 13 -228856 -1
0;
#X obj 79 434 cnv 17 3 17 empty empty 0 5 9 0 16 -228856 -162280 0
;
#X obj 79 367 cnv 17 3 17 empty empty 0 5 9 0 16 -228856 -162280 0
;
#X obj 0 496 cnv 15 552 21 empty empty empty 20 12 0 14 -233017 -33289
0;
#N canvas 238 349 428 75 Related_objects 0;
#X obj 0 0 cnv 15 425 20 empty empty empty 3 12 0 14 -204280 -1 0;
#X text 6 1 Related Objects;
#X restore 206 498 pd Related_objects;
#N canvas 583 626 379 261 META 0;
#X text 12 25 LICENSE GPL v2;
#X text 12 198 MAINTAINER Fred Jan Kraan <fjkraan@xs4all.nl>;
#X text 12 83 INLET_0 signal;
#X text 12 143 OUTLET_0 signal;
#X text 12 123 INLET_2 float;
#X text 12 64 VERSION 0.03;
#X text 12 5 KEYWORDS signal mirror;
#X text 11 44 DESCRIPTION signal mirroring;
#X text 12 103 INLET_1 float;
#X text 12 219 HELP_PATCH_AUTHORS Martin Weiss 2003 Updated by Fred
Jan Kraan 2016-04.;
#X text 12 163 AUTHOR Martin Weiss code from swh_plugins by steve harris
www.plugin.org.uk;
#X restore 502 500 pd META;
#X obj 123 289 output~;
#X obj 334 274 metro 100;
#X obj 334 253 tgl 15 0 empty empty empty 17 7 0 10 -262144 -1 -1 1
1;
#X text 107 367 signal;
#X obj 79 392 cnv 17 3 17 empty empty 1 5 9 0 16 -228856 -162280 0
;
#X text 107 434 signal;
#N canvas 595 585 450 300 view 0;
#N canvas 0 50 450 250 (subpatch) 0;
#X array \$0-freqdiv 100 float 0;
#X coords 0 -1 99 1 200 140 1 0 0;
#X restore 128 78 graph;
#N canvas 0 50 450 250 (subpatch) 0;
#X array \$0-osc 100 float 0;
#X coords 0 1 100 -1 200 20 1 0 0;
#X restore 128 222 graph;
#X obj 0 0 cnv 15 425 20 empty empty empty 3 12 0 14 -204280 -1 0;
#X text 6 1 waveform viewer;
#X text 14 266 array updates can cause dropouts when visible;
#X text 118 77 1;
#X text 112 205 -1;
#X restore 415 252 pd view waveform;
#X text 8 23 mirrors signal at specified borders, f 75;
#X floatatom 290 88 5 0 0 0 - - -, f 5;
#X obj 334 295 tabwrite~ \$0-osc;
#X text 107 392 float;
#X text 162 367 - signal to process;
#X text 164 434 - processed signal;
#X obj 123 179 sigpack/freqdiv~ 1;
#X obj 334 316 tabwrite~ \$0-freqdiv;
#X obj 123 81 osc~ 8800;
#X text 413 52 8;
#X obj 291 67 hradio 15 1 0 9 empty empty empty 0 -8 0 10 -262144 -1
-1 8;
#X text 292 52 0;
#X obj 476 6 freqdiv~;
#X text 162 392 - denominate int: 0-8;
#X text 96 471 1: default denoninate value;
#X connect 10 0 18 0;
#X connect 10 0 23 0;
#X connect 11 0 10 0;
#X connect 17 0 22 1;
#X connect 22 0 9 0;
#X connect 22 0 9 1;
#X connect 22 0 23 0;
#X connect 24 0 18 0;
#X connect 24 0 22 0;
#X connect 26 0 17 0;
