#N canvas 444 82 557 534 10;
#X obj 0 0 cnv 15 552 40 empty empty hardlimit~ 3 12 0 18 -204280 -1
0;
#X obj 0 353 cnv 3 550 3 empty empty inlets 8 12 0 13 -228856 -1 0
;
#X obj 0 465 cnv 3 550 3 empty empty outlets 8 12 0 13 -228856 -1 0
;
#X obj 0 502 cnv 3 550 3 empty empty arguments 8 12 0 13 -228856 -1
0;
#X obj 79 474 cnv 17 3 17 empty empty 0 5 9 0 16 -228856 -162280 0
;
#X obj 79 367 cnv 17 3 17 empty empty 0 5 9 0 16 -228856 -162280 0
;
#X obj 0 536 cnv 15 552 21 empty empty empty 20 12 0 14 -233017 -33289
0;
#N canvas 236 350 428 75 Related_objects 0;
#X obj 0 0 cnv 15 425 20 empty empty empty 3 12 0 14 -204280 -1 0;
#X text 6 1 Related Objects;
#X restore 206 538 pd Related_objects;
#N canvas 583 626 379 261 META 0;
#X text 12 25 LICENSE GPL v2;
#X text 12 200 MAINTAINER Fred Jan Kraan <fjkraan@xs4all.nl>;
#X text 12 83 INLET_0 signal;
#X text 12 160 OUTLET_0 signal;
#X text 12 180 AUTHOR Martin Weiss;
#X text 12 221 HELP_PATCH_AUTHORS Martin Weiss 2003 Updated by Fred
Jan Kraan 2016-02.;
#X text 12 123 INLET_2 float;
#X text 12 64 VERSION 0.03;
#X text 12 5 KEYWORDS signal limiter;
#X text 12 45 DESCRIPTION brick hard limiter with residue mixer;
#X text 12 103 INLET_1 float;
#X text 12 142 INLET_3 float;
#X restore 502 540 pd META;
#X obj 123 308 output~;
#X obj 230 49 vsl 10 64 0 1 0 0 empty empty empty 0 -9 0 10 -262144
-1 -1 0 1;
#X floatatom 181 124 5 0 0 0 - - -, f 5;
#X obj 389 259 metro 100;
#X obj 389 238 tgl 15 0 empty empty empty 17 7 0 10 -262144 -1 -1 0
1;
#X floatatom 230 124 5 0 0 0 - - -, f 5;
#X text 107 367 signal;
#X obj 79 392 cnv 17 3 17 empty empty 1 5 9 0 16 -228856 -162280 0
;
#X obj 79 417 cnv 17 3 17 empty empty 2 5 9 0 16 -228856 -162280 0
;
#X text 107 417 float;
#X obj 122 122 osc~ 440;
#X text 107 474 signal;
#N canvas 470 643 450 294 view 0;
#N canvas 0 50 450 250 (subpatch) 0;
#X array \$0-limited 100 float 0;
#X coords 0 1 99 -1 200 140 1 0 0;
#X restore 128 44 graph;
#N canvas 0 50 450 250 (subpatch) 0;
#X array \$0-clean 100 float 0;
#X coords 0 1 100 -1 200 20 1 0 0;
#X restore 128 210 graph;
#X obj 0 0 cnv 15 425 20 empty empty empty 3 12 0 14 -204280 -1 0;
#X text 6 1 waveform viewer;
#X text 14 254 array updates can cause dropouts when visible;
#X text 118 43 1;
#X text 112 170 -1;
#X restore 389 323 pd view waveform;
#X obj 389 280 tabwrite~ \$0-clean;
#X text 107 392 float;
#X text 8 23 brick hard limiter with residue mixer, f 75;
#X obj 476 6 hardlimit~;
#X obj 279 49 vsl 10 64 0 1 0 0 empty empty empty 0 -9 0 10 -262144
-1 -1 0 1;
#X floatatom 279 124 5 0 0 0 - - -, f 5;
#X obj 79 442 cnv 17 3 17 empty empty 3 5 9 0 16 -228856 -162280 0
;
#X text 107 442 float;
#X text 162 367 - signal to limit;
#X text 162 392 - limit level in dB: -50 - 0;
#X text 162 417 - wet/dry mix: 0 - 1;
#X text 162 442 - residue mix: 0 - 1;
#X text 164 474 - limited signal;
#X text 96 511 default values for limit \, wet/dry mix and residue
mix;
#X obj 389 302 tabwrite~ \$0-limited;
#X obj 123 221 sigpack/hardlimit~ -8 1 0;
#X obj 181 49 vsl 10 64 -50 0 0 0 empty empty empty 0 -9 0 10 -262144
-1 -1 0 1;
#X connect 10 0 14 0;
#X connect 10 0 37 2;
#X connect 11 0 37 1;
#X connect 12 0 22 0;
#X connect 12 0 36 0;
#X connect 13 0 12 0;
#X connect 19 0 22 0;
#X connect 19 0 37 0;
#X connect 26 0 27 0;
#X connect 26 0 37 3;
#X connect 37 0 9 0;
#X connect 37 0 9 1;
#X connect 37 0 36 0;
#X connect 38 0 11 0;
