#N canvas 91 80 745 559 10;
#X obj 31 27 sigpack/chop~;
#X obj 31 52 sigpack/decimate~;
#X obj 31 77 sigpack/diode~;
#X obj 31 102 sigpack/foldback~;
#X obj 31 127 sigpack/foldover~;
#X obj 31 152 sigpack/freqdiv~;
#X obj 31 177 sigpack/freqshift~;
#X obj 31 202 sigpack/hardlimit~;
#X obj 31 227 sigpack/harmgen~;
#X obj 31 252 sigpack/impulse~;
#X obj 31 277 sigpack/rectify~;
#X obj 31 302 sigpack/round~;
#X obj 31 327 sigpack/saturate~;
#X obj 31 352 sigpack/shape~;
#X obj 31 377 sigpack/sieve~;
#X obj 31 402 sigpack/split~;
#X obj 31 427 sigpack/transient~;
#X obj 31 452 sigpack/ustep~;
#X obj 31 477 sigpack/valverect~;
#X obj 31 502 sigpack/vowel~;
#X obj 31 527 sigpack/wavewrap~;
#X text 165 27 signal chopping modulator;
#X text 165 52 signal decimation;
#X text 166 77 diode rectifier network;
#X text 165 102 signal mirror;
#X text 165 127 foldover distortion;
#X text 165 152 signal frequency divider;
#X text 166 177 bode frequency shifter;
#X text 166 202 brick hard limiter with residue mixer;
#X text 165 227 harmonic generator;
#X text 166 252 non-bandlimited single-sample impulses;
#X text 165 277 flips negative values to positive;
#X text 165 302 simple rounder;
#X text 165 327 soft saturation;
#X text 165 352 reshape input by an exponential function;
#X text 165 377 simple sample sifter;
#X text 165 402 signal split function;
#X text 165 427 transient mangler;
#X text 165 452 signal unity step function;
#X text 166 477 valve rectifier;
#X text 165 502 simple formant filter;
#X text 166 527 sinus wavewrapper;
#X text 573 527 2007 www.weiss-archiv.de;
#X text 638 502 sIgpAck 0.044;
