#N canvas 427 84 557 534 10;
#X obj 0 0 cnv 15 552 40 empty empty transient~ 3 12 0 18 -204280 -1
0;
#X obj 0 353 cnv 3 550 3 empty empty inlets 8 12 0 13 -228856 -1 0
;
#X obj 0 447 cnv 3 550 3 empty empty outlets 8 12 0 13 -228856 -1 0
;
#X obj 0 484 cnv 3 550 3 empty empty arguments 8 12 0 13 -228856 -1
0;
#X obj 79 456 cnv 17 3 17 empty empty 0 5 9 0 16 -228856 -162280 0
;
#X obj 79 367 cnv 17 3 17 empty empty 0 5 9 0 16 -228856 -162280 0
;
#X obj 0 518 cnv 15 552 21 empty empty empty 20 12 0 14 -233017 -33289
0;
#N canvas 238 349 428 75 Related_objects 0;
#X obj 0 0 cnv 15 425 20 empty empty empty 3 12 0 14 -204280 -1 0;
#X text 6 1 Related Objects;
#X restore 206 520 pd Related_objects;
#N canvas 565 588 379 261 META 0;
#X text 12 25 LICENSE GPL v2;
#X text 12 194 MAINTAINER Fred Jan Kraan <fjkraan@xs4all.nl>;
#X text 12 83 INLET_0 signal;
#X text 12 141 OUTLET_0 signal;
#X text 12 215 HELP_PATCH_AUTHORS Martin Weiss 2003 Updated by Fred
Jan Kraan 2016-02.;
#X text 12 64 VERSION 0.03;
#X text 11 103 INLET_1 float;
#X text 12 162 AUTHOR Martin Weiss with code from swh_plugins by steve
harris www.plugin.org.uk;
#X text 12 5 KEYWORDS signal transient mangler;
#X text 12 45 DESCRIPTION signal transient mangler;
#X text 11 122 INLET_2 float;
#X restore 502 522 pd META;
#X obj 113 303 output~;
#X obj 324 288 metro 100;
#X obj 324 267 tgl 15 0 empty empty empty 17 7 0 10 -262144 -1 -1 1
1;
#X text 107 367 signal;
#X obj 79 392 cnv 17 3 17 empty empty 1 5 9 0 16 -228856 -162280 0
;
#X text 107 456 signal;
#N canvas 512 668 450 300 view 0;
#N canvas 0 50 450 250 (subpatch) 0;
#X array \$0-trans 100 float 0;
#X coords 0 1 99 -1 200 140 1 0 0;
#X restore 128 78 graph;
#N canvas 0 50 450 250 (subpatch) 0;
#X array \$0-clean 100 float 0;
#X coords 0 1 100 -1 200 20 1 0 0;
#X restore 128 222 graph;
#X obj 0 0 cnv 15 425 20 empty empty empty 3 12 0 14 -204280 -1 0;
#X text 6 1 waveform viewer;
#X text 14 266 array updates can cause dropouts when visible;
#X text 106 78 100;
#X text 118 205 0;
#X text 6 1 waveform viewer;
#X restore 405 266 pd view waveform;
#X text 164 456 - processed signal;
#X obj 499 6 diode~;
#X obj 324 309 tabwrite~ \$0-clean;
#X text 9 23 transient mangler, f 75;
#X obj 113 212 sigpack/transient~ 1 0.1;
#X floatatom 285 150 5 0 0 0 - - -, f 5;
#X floatatom 214 150 5 0 0 0 - - -, f 5;
#X text 96 493 1: default attach value \, 2: default decay value,
f 71;
#X text 107 392 float;
#X text 162 392 - attack value;
#X obj 79 417 cnv 17 3 17 empty empty 1 5 9 0 16 -228856 -162280 0
;
#X text 107 417 float;
#X text 162 417 - decay value;
#X obj 324 330 tabwrite~ \$0-trans;
#N canvas 316 709 450 318 testsignal 0;
#X obj 44 32 inlet;
#X obj 173 37 inlet;
#X obj 29 279 outlet~;
#X obj 44 152 line~;
#X obj 29 241 *~;
#X obj 44 103 t b b;
#X msg 74 180 0.25;
#X obj 44 75 metro 500;
#X obj 152 133 *~ 0;
#X obj 29 205 osc~ 100;
#X msg 44 127 1.1 \, 0 200;
#X obj 252 37 inlet;
#X obj 210 206 adc~;
#X obj 231 237 *~ 0;
#X obj 152 75 noise~;
#X obj 173 104 * 0.1;
#X obj 152 160 lop~ 500;
#X obj 0 0 cnv 15 425 20 empty empty empty 3 12 0 14 -204280 -1 0;
#X text 5 2 test signal generator;
#X connect 0 0 7 0;
#X connect 1 0 15 0;
#X connect 3 0 4 1;
#X connect 4 0 2 0;
#X connect 5 0 10 0;
#X connect 5 1 6 0;
#X connect 6 0 9 1;
#X connect 7 0 5 0;
#X connect 8 0 16 0;
#X connect 9 0 4 0;
#X connect 10 0 3 0;
#X connect 11 0 13 1;
#X connect 12 0 13 0;
#X connect 12 1 13 0;
#X connect 13 0 2 0;
#X connect 14 0 8 0;
#X connect 15 0 8 1;
#X connect 16 0 2 0;
#X restore 112 111 pd testsignal;
#X obj 112 43 tgl 15 0 empty empty empty 17 7 0 10 -262144 -1 -1 1
1;
#X obj 149 61 tgl 15 0 empty empty empty 17 7 0 10 -262144 -1 -1 1
1;
#X obj 187 81 tgl 15 0 empty empty empty 17 7 0 10 -262144 -1 -1 0
1;
#X text 131 41 sine resonator 100 Hz;
#X text 204 80 adc~;
#X text 168 60 lo pass filtered noise;
#X obj 217 106 hsl 128 15 -1 1 0 0 empty empty attack 20 8 0 10 -262144
-1 -1 8800 1;
#X obj 216 128 hsl 128 15 -1 1 0 0 empty empty decay 20 8 0 10 -262144
-1 -1 8200 1;
#X text 162 367 - signal to mangle;
#X connect 10 0 18 0;
#X connect 10 0 29 0;
#X connect 11 0 10 0;
#X connect 20 0 9 0;
#X connect 20 0 9 1;
#X connect 20 0 29 0;
#X connect 21 0 20 2;
#X connect 22 0 20 1;
#X connect 30 0 20 0;
#X connect 30 0 18 0;
#X connect 31 0 30 0;
#X connect 32 0 30 1;
#X connect 33 0 30 2;
#X connect 37 0 22 0;
#X connect 38 0 21 0;
