#N canvas 409 80 557 534 10;
#X obj 0 0 cnv 15 552 40 empty empty ustep~ 3 12 0 18 -204280 -1 0
;
#X obj 0 353 cnv 3 550 3 empty empty inlets 8 12 0 13 -228856 -1 0
;
#X obj 0 463 cnv 3 550 3 empty empty outlets 8 12 0 13 -228856 -1 0
;
#X obj 0 500 cnv 3 550 3 empty empty arguments 8 12 0 13 -228856 -1
0;
#X obj 79 472 cnv 17 3 17 empty empty 0 5 9 0 16 -228856 -162280 0
;
#X obj 79 365 cnv 17 3 17 empty empty 0 5 9 0 16 -228856 -162280 0
;
#X obj 0 534 cnv 15 552 21 empty empty empty 20 12 0 14 -233017 -33289
0;
#N canvas 238 349 428 75 Related_objects 0;
#X obj 0 0 cnv 15 425 20 empty empty empty 3 12 0 14 -204280 -1 0;
#X text 6 1 Related Objects;
#X restore 206 536 pd Related_objects;
#N canvas 565 588 379 261 META 0;
#X text 12 25 LICENSE GPL v2;
#X text 12 190 MAINTAINER Fred Jan Kraan <fjkraan@xs4all.nl>;
#X text 12 83 INLET_0 signal;
#X text 12 138 OUTLET_0 signal;
#X text 12 211 HELP_PATCH_AUTHORS Martin Weiss 2003 Updated by Fred
Jan Kraan 2016-02.;
#X text 12 64 VERSION 0.03;
#X text 11 103 INLET_1 float;
#X text 12 158 AUTHOR Martin Weiss with code from swh_plugins by steve
harris www.plugin.org.uk;
#X text 12 5 KEYWORDS signal unity step;
#X text 12 45 DESCRIPTION signal unity step function;
#X text 11 120 INLET_2 float;
#X restore 502 538 pd META;
#X obj 123 290 output~;
#X obj 334 275 metro 100;
#X obj 334 254 tgl 15 0 empty empty empty 17 7 0 10 -262144 -1 -1 1
1;
#X text 107 365 signal;
#X obj 79 390 cnv 17 3 17 empty empty 1 5 9 0 16 -228856 -162280 0
;
#X obj 122 105 osc~ 440;
#X text 107 472 signal;
#N canvas 679 551 450 300 view 0;
#N canvas 0 50 450 250 (subpatch) 0;
#X array \$0-unity 100 float 0;
#X coords 0 1 99 -1 200 140 1 0 0;
#X restore 128 78 graph;
#N canvas 0 50 450 250 (subpatch) 0;
#X array \$0-clean 100 float 0;
#X coords 0 1 100 -1 200 20 1 0 0;
#X restore 128 222 graph;
#X obj 0 0 cnv 15 425 20 empty empty empty 3 12 0 14 -204280 -1 0;
#X text 6 1 waveform viewer;
#X text 14 266 array updates can cause dropouts when visible;
#X text 118 77 1;
#X text 112 205 -1;
#X restore 415 253 pd view waveform;
#X text 164 472 - processed signal;
#X text 162 365 - signal to rectify;
#X obj 334 296 tabwrite~ \$0-clean;
#X text 8 23 signal unity step function, f 75;
#X obj 499 6 ustep~;
#X obj 123 203 sigpack/ustep~ 0;
#X obj 236 45 vsl 8 64 -1 1 0 0 empty empty empty 0 -9 0 10 -262144
-1 -1 5000 1;
#X floatatom 236 117 5 0 0 0 - - -, f 5;
#X obj 198 107 tgl 15 0 empty empty empty 17 7 0 10 -262144 -1 -1 1
1;
#X obj 334 317 tabwrite~ \$0-unity;
#X obj 79 440 cnv 17 3 17 empty empty 2 5 9 0 16 -228856 -162280 0
;
#X text 107 390 float;
#X text 107 440 float;
#X text 162 390 - 0: signal values above threshold output 1 \, otherwise
0;
#X text 164 410 - 1: signal values above threshold output 1 and unchanged
otherwise;
#X text 162 440 - threshold level;
#X text 96 509 1: default mode \, 2: default threshold, f 71;
#X connect 10 0 19 0;
#X connect 10 0 26 0;
#X connect 11 0 10 0;
#X connect 14 0 19 0;
#X connect 14 0 22 0;
#X connect 22 0 9 0;
#X connect 22 0 9 1;
#X connect 22 0 26 0;
#X connect 23 0 24 0;
#X connect 24 0 22 2;
#X connect 25 0 22 1;
